<svg id="diagram-9d693822e3dc095bac29" width="852" xmlns="http://www.w3.org/2000/svg" height="1890" viewBox="-73.5 -52 852 1890" role="graphics-document document" aria-roledescription="sequence" style="max-width: none;"><g><rect x="650.5" y="1727" fill="#eaeaea" stroke="#666" width="116" height="44" name="P" rx="3" ry="3" class="actor actor-bottom"/><text x="708.5" y="1749" dominant-baseline="central" alignment-baseline="central" class="actor actor-box" style="text-anchor: middle; font-size: 16px; font-weight: 400; font-family: Arial, sans-serif;"><tspan x="708.5" dy="0">Provider</tspan></text></g><g><rect x="440.5" y="1727" fill="#eaeaea" stroke="#666" width="116" height="44" name="L" rx="3" ry="3" class="actor actor-bottom"/><text x="498.5" y="1749" dominant-baseline="central" alignment-baseline="central" class="actor actor-box" style="text-anchor: middle; font-size: 16px; font-weight: 400; font-family: Arial, sans-serif;"><tspan x="498.5" dy="-8">Designated</tspan></text><text x="498.5" y="1749" dominant-baseline="central" alignment-baseline="central" class="actor actor-box" style="text-anchor: middle; font-size: 16px; font-weight: 400; font-family: Arial, sans-serif;"><tspan x="498.5" dy="8">lifecycle owner</tspan></text></g><g><rect x="240" y="1727" fill="#eaeaea" stroke="#666" width="116" height="44" name="C" rx="3" ry="3" class="actor actor-bottom"/><text x="298" y="1749" dominant-baseline="central" alignment-baseline="central" class="actor actor-box" style="text-anchor: middle; font-size: 16px; font-weight: 400; font-family: Arial, sans-serif;"><tspan x="298" dy="0">OCC</tspan></text></g><g><rect x="0" y="1727" fill="#eaeaea" stroke="#666" width="116" height="44" name="M" rx="3" ry="3" class="actor actor-bottom"/><text x="58" y="1749" dominant-baseline="central" alignment-baseline="central" class="actor actor-box" style="text-anchor: middle; font-size: 16px; font-weight: 400; font-family: Arial, sans-serif;"><tspan x="58" dy="-8">Trusted</tspan></text><text x="58" y="1749" dominant-baseline="central" alignment-baseline="central" class="actor actor-box" style="text-anchor: middle; font-size: 16px; font-weight: 400; font-family: Arial, sans-serif;"><tspan x="58" dy="8">management</tspan></text></g><g><line id="actor3" x1="708.5" y1="44" x2="708.5" y2="1727" class="actor-line 200" stroke-width="0.5px" stroke="#999" name="P" data-et="life-line" data-id="P"/><g id="root-3" data-et="participant" data-type="participant" data-id="P"><rect x="650.5" y="0" fill="#eaeaea" stroke="#666" width="116" height="44" name="P" rx="3" ry="3" class="actor actor-top"/><text x="708.5" y="22" dominant-baseline="central" alignment-baseline="central" class="actor actor-box" style="text-anchor: middle; font-size: 16px; font-weight: 400; font-family: Arial, sans-serif;"><tspan x="708.5" dy="0">Provider</tspan></text></g></g><g><line id="actor2" x1="498.5" y1="44" x2="498.5" y2="1727" class="actor-line 200" stroke-width="0.5px" stroke="#999" name="L" data-et="life-line" data-id="L"/><g id="root-2" data-et="participant" data-type="participant" data-id="L"><rect x="440.5" y="0" fill="#eaeaea" stroke="#666" width="116" height="44" name="L" rx="3" ry="3" class="actor actor-top"/><text x="498.5" y="22" dominant-baseline="central" alignment-baseline="central" class="actor actor-box" style="text-anchor: middle; font-size: 16px; font-weight: 400; font-family: Arial, sans-serif;"><tspan x="498.5" dy="-8">Designated</tspan></text><text x="498.5" y="22" dominant-baseline="central" alignment-baseline="central" class="actor actor-box" style="text-anchor: middle; font-size: 16px; font-weight: 400; font-family: Arial, sans-serif;"><tspan x="498.5" dy="8">lifecycle owner</tspan></text></g></g><g><line id="actor1" x1="298" y1="44" x2="298" y2="1727" class="actor-line 200" stroke-width="0.5px" stroke="#999" name="C" data-et="life-line" data-id="C"/><g id="root-1" data-et="participant" data-type="participant" data-id="C"><rect x="240" y="0" fill="#eaeaea" stroke="#666" width="116" height="44" name="C" rx="3" ry="3" class="actor actor-top"/><text x="298" y="22" dominant-baseline="central" alignment-baseline="central" class="actor actor-box" style="text-anchor: middle; font-size: 16px; font-weight: 400; font-family: Arial, sans-serif;"><tspan x="298" dy="0">OCC</tspan></text></g></g><g><line id="actor0" x1="58" y1="44" x2="58" y2="1727" class="actor-line 200" stroke-width="0.5px" stroke="#999" name="M" data-et="life-line" data-id="M"/><g id="root-0" data-et="participant" data-type="participant" data-id="M"><rect x="0" y="0" fill="#eaeaea" stroke="#666" width="116" height="44" name="M" rx="3" ry="3" class="actor actor-top"/><text x="58" y="22" dominant-baseline="central" alignment-baseline="central" class="actor actor-box" style="text-anchor: middle; font-size: 16px; font-weight: 400; font-family: Arial, sans-serif;"><tspan x="58" dy="-8">Trusted</tspan></text><text x="58" y="22" dominant-baseline="central" alignment-baseline="central" class="actor actor-box" style="text-anchor: middle; font-size: 16px; font-weight: 400; font-family: Arial, sans-serif;"><tspan x="58" dy="8">management</tspan></text></g></g><style>#diagram-9d693822e3dc095bac29{font-size:16px;fill:#333;}@keyframes edge-animation-frame{from{stroke-dashoffset:0;}}@keyframes dash{to{stroke-dashoffset:0;}}#diagram-9d693822e3dc095bac29 .edge-animation-slow{stroke-dasharray:9,5!important;stroke-dashoffset:900;animation:dash 50s linear infinite;stroke-linecap:round;}#diagram-9d693822e3dc095bac29 .edge-animation-fast{stroke-dasharray:9,5!important;stroke-dashoffset:900;animation:dash 20s linear infinite;stroke-linecap:round;}#diagram-9d693822e3dc095bac29 .error-icon{fill:hsl(220.5882352941, 100%, 98.3333333333%);}#diagram-9d693822e3dc095bac29 .error-text{fill:rgb(8.5000000002, 5.7500000001, 0);stroke:rgb(8.5000000002, 5.7500000001, 0);}#diagram-9d693822e3dc095bac29 .edge-thickness-normal{stroke-width:1px;}#diagram-9d693822e3dc095bac29 .edge-thickness-thick{stroke-width:3.5px;}#diagram-9d693822e3dc095bac29 .edge-pattern-solid{stroke-dasharray:0;}#diagram-9d693822e3dc095bac29 .edge-thickness-invisible{stroke-width:0;fill:none;}#diagram-9d693822e3dc095bac29 .edge-pattern-dashed{stroke-dasharray:3;}#diagram-9d693822e3dc095bac29 .edge-pattern-dotted{stroke-dasharray:2;}#diagram-9d693822e3dc095bac29 .marker{fill:#0b0b0b;stroke:#0b0b0b;}#diagram-9d693822e3dc095bac29 .marker.cross{stroke:#0b0b0b;}#diagram-9d693822e3dc095bac29 svg{font-size:16px;}#diagram-9d693822e3dc095bac29 p{margin:0;}#diagram-9d693822e3dc095bac29 .actor{stroke:#879AB0;fill:#EDF2F7;stroke-width:1;}#diagram-9d693822e3dc095bac29 rect.actor.outer-path[data-look="neo"]{filter:drop-shadow( 1px 2px 2px rgba(185,185,185,1));}#diagram-9d693822e3dc095bac29 rect.note[data-look="neo"]{stroke:#B3A078;fill:#F7F1E5;filter:drop-shadow( 1px 2px 2px rgba(185,185,185,1));}#diagram-9d693822e3dc095bac29 text.actor&gt;tspan{fill:#25364A;stroke:none;}#diagram-9d693822e3dc095bac29 .actor-line{stroke:#879AB0;}#diagram-9d693822e3dc095bac29 .innerArc{stroke-width:1.5;stroke-dasharray:none;}#diagram-9d693822e3dc095bac29 .messageLine0{stroke-width:1.5;stroke-dasharray:none;stroke:#748798;}#diagram-9d693822e3dc095bac29 .messageLine1{stroke-width:1.5;stroke-dasharray:2,2;stroke:#748798;}#diagram-9d693822e3dc095bac29 [id$="-arrowhead"] path{fill:#748798;stroke:#748798;}#diagram-9d693822e3dc095bac29 .sequenceNumber{fill:#f4f4f4;}#diagram-9d693822e3dc095bac29 [id$="-sequencenumber"]{fill:#748798;}#diagram-9d693822e3dc095bac29 [id$="-crosshead"] path{fill:#748798;stroke:#748798;}#diagram-9d693822e3dc095bac29 .messageText{fill:#25364A;stroke:none;}#diagram-9d693822e3dc095bac29 .labelBox{stroke:#879AB0;fill:#EDF2F7;filter:none;}#diagram-9d693822e3dc095bac29 .labelText,#diagram-9d693822e3dc095bac29 .labelText&gt;tspan{fill:#25364A;stroke:none;}#diagram-9d693822e3dc095bac29 .loopText,#diagram-9d693822e3dc095bac29 .loopText&gt;tspan{fill:#25364A;stroke:none;}#diagram-9d693822e3dc095bac29 .sectionTitle,#diagram-9d693822e3dc095bac29 .sectionTitle&gt;tspan{fill:#25364A;stroke:none;}#diagram-9d693822e3dc095bac29 .loopLine{stroke-width:2px;stroke-dasharray:2,2;stroke:#879AB0;fill:#879AB0;}#diagram-9d693822e3dc095bac29 .note{stroke:#B3A078;fill:#F7F1E5;}#diagram-9d693822e3dc095bac29 .noteText,#diagram-9d693822e3dc095bac29 .noteText&gt;tspan{fill:#344054;stroke:none;font-weight:normal;}#diagram-9d693822e3dc095bac29 .activation0{fill:hsl(-79.4117647059, 100%, 93.3333333333%);stroke:hsl(-79.4117647059, 100%, 83.3333333333%);}#diagram-9d693822e3dc095bac29 .activation1{fill:hsl(-79.4117647059, 100%, 93.3333333333%);stroke:hsl(-79.4117647059, 100%, 83.3333333333%);}#diagram-9d693822e3dc095bac29 .activation2{fill:hsl(-79.4117647059, 100%, 93.3333333333%);stroke:hsl(-79.4117647059, 100%, 83.3333333333%);}#diagram-9d693822e3dc095bac29 .actorPopupMenu{position:absolute;}#diagram-9d693822e3dc095bac29 .actorPopupMenuPanel{position:absolute;fill:#EDF2F7;box-shadow:0px 8px 16px 0px rgba(0,0,0,0.2);filter:drop-shadow(3px 5px 2px rgb(0 0 0 / 0.4));}#diagram-9d693822e3dc095bac29 .actor-man circle,#diagram-9d693822e3dc095bac29 line{fill:#EDF2F7;stroke-width:2px;}#diagram-9d693822e3dc095bac29 g rect.rect{filter:drop-shadow( 1px 2px 2px rgba(185,185,185,1));stroke:hsl(40.5882352941, 60%, 83.3333333333%);}#diagram-9d693822e3dc095bac29 .node .neo-node{stroke:hsl(40.5882352941, 60%, 83.3333333333%);}#diagram-9d693822e3dc095bac29 [data-look="neo"].node rect,#diagram-9d693822e3dc095bac29 [data-look="neo"].cluster rect,#diagram-9d693822e3dc095bac29 [data-look="neo"].node polygon{stroke:url(#diagram-9d693822e3dc095bac29-gradient);filter:drop-shadow( 1px 2px 2px rgba(185,185,185,1));}#diagram-9d693822e3dc095bac29 [data-look="neo"].swimlane.cluster rect{filter:none;}#diagram-9d693822e3dc095bac29 [data-look="neo"].node path{stroke:url(#diagram-9d693822e3dc095bac29-gradient);stroke-width:1px;}#diagram-9d693822e3dc095bac29 [data-look="neo"].node .outer-path{filter:drop-shadow( 1px 2px 2px rgba(185,185,185,1));}#diagram-9d693822e3dc095bac29 [data-look="neo"].node .neo-line path{stroke:hsl(40.5882352941, 60%, 83.3333333333%);filter:none;}#diagram-9d693822e3dc095bac29 [data-look="neo"].node circle{stroke:url(#diagram-9d693822e3dc095bac29-gradient);filter:drop-shadow( 1px 2px 2px rgba(185,185,185,1));}#diagram-9d693822e3dc095bac29 [data-look="neo"].node circle .state-start{fill:#000000;}#diagram-9d693822e3dc095bac29 [data-look="neo"].icon-shape .icon{fill:url(#diagram-9d693822e3dc095bac29-gradient);filter:drop-shadow( 1px 2px 2px rgba(185,185,185,1));}#diagram-9d693822e3dc095bac29 [data-look="neo"].icon-shape .icon-neo path{stroke:url(#diagram-9d693822e3dc095bac29-gradient);filter:drop-shadow( 1px 2px 2px rgba(185,185,185,1));}#diagram-9d693822e3dc095bac29 :root{--mermaid-font-family:Arial,sans-serif;}</style><g/><defs><symbol id="diagram-9d693822e3dc095bac29-computer" width="24" height="24"><path transform="scale(.5)" d="M2 2v13h20v-13h-20zm18 11h-16v-9h16v9zm-10.228 6l.466-1h3.524l.467 1h-4.457zm14.228 3h-24l2-6h2.104l-1.33 4h18.45l-1.297-4h2.073l2 6zm-5-10h-14v-7h14v7z"/></symbol></defs><defs><symbol id="diagram-9d693822e3dc095bac29-database" fill-rule="evenodd" clip-rule="evenodd"><path transform="scale(.5)" d="M12.258.001l.256.004.255.005.253.008.251.01.249.012.247.015.246.016.242.019.241.02.239.023.236.024.233.027.231.028.229.031.225.032.223.034.22.036.217.038.214.04.211.041.208.043.205.045.201.046.198.048.194.05.191.051.187.053.183.054.18.056.175.057.172.059.168.06.163.061.16.063.155.064.15.066.074.033.073.033.071.034.07.034.069.035.068.035.067.035.066.035.064.036.064.036.062.036.06.036.06.037.058.037.058.037.055.038.055.038.053.038.052.038.051.039.05.039.048.039.047.039.045.04.044.04.043.04.041.04.04.041.039.041.037.041.036.041.034.041.033.042.032.042.03.042.029.042.027.042.026.043.024.043.023.043.021.043.02.043.018.044.017.043.015.044.013.044.012.044.011.045.009.044.007.045.006.045.004.045.002.045.001.045v17l-.001.045-.002.045-.004.045-.006.045-.007.045-.009.044-.011.045-.012.044-.013.044-.015.044-.017.043-.018.044-.02.043-.021.043-.023.043-.024.043-.026.043-.027.042-.029.042-.03.042-.032.042-.033.042-.034.041-.036.041-.037.041-.039.041-.04.041-.041.04-.043.04-.044.04-.045.04-.047.039-.048.039-.05.039-.051.039-.052.038-.053.038-.055.038-.055.038-.058.037-.058.037-.06.037-.06.036-.062.036-.064.036-.064.036-.066.035-.067.035-.068.035-.069.035-.07.034-.071.034-.073.033-.074.033-.15.066-.155.064-.16.063-.163.061-.168.06-.172.059-.175.057-.18.056-.183.054-.187.053-.191.051-.194.05-.198.048-.201.046-.205.045-.208.043-.211.041-.214.04-.217.038-.22.036-.223.034-.225.032-.229.031-.231.028-.233.027-.236.024-.239.023-.241.02-.242.019-.246.016-.247.015-.249.012-.251.01-.253.008-.255.005-.256.004-.258.001-.258-.001-.256-.004-.255-.005-.253-.008-.251-.01-.249-.012-.247-.015-.245-.016-.243-.019-.241-.02-.238-.023-.236-.024-.234-.027-.231-.028-.228-.031-.226-.032-.223-.034-.22-.036-.217-.038-.214-.04-.211-.041-.208-.043-.204-.045-.201-.046-.198-.048-.195-.05-.19-.051-.187-.053-.184-.054-.179-.056-.176-.057-.172-.059-.167-.06-.164-.061-.159-.063-.155-.064-.151-.066-.074-.033-.072-.033-.072-.034-.07-.034-.069-.035-.068-.035-.067-.035-.066-.035-.064-.036-.063-.036-.062-.036-.061-.036-.06-.037-.058-.037-.057-.037-.056-.038-.055-.038-.053-.038-.052-.038-.051-.039-.049-.039-.049-.039-.046-.039-.046-.04-.044-.04-.043-.04-.041-.04-.04-.041-.039-.041-.037-.041-.036-.041-.034-.041-.033-.042-.032-.042-.03-.042-.029-.042-.027-.042-.026-.043-.024-.043-.023-.043-.021-.043-.02-.043-.018-.044-.017-.043-.015-.044-.013-.044-.012-.044-.011-.045-.009-.044-.007-.045-.006-.045-.004-.045-.002-.045-.001-.045v-17l.001-.045.002-.045.004-.045.006-.045.007-.045.009-.044.011-.045.012-.044.013-.044.015-.044.017-.043.018-.044.02-.043.021-.043.023-.043.024-.043.026-.043.027-.042.029-.042.03-.042.032-.042.033-.042.034-.041.036-.041.037-.041.039-.041.04-.041.041-.04.043-.04.044-.04.046-.04.046-.039.049-.039.049-.039.051-.039.052-.038.053-.038.055-.038.056-.038.057-.037.058-.037.06-.037.061-.036.062-.036.063-.036.064-.036.066-.035.067-.035.068-.035.069-.035.07-.034.072-.034.072-.033.074-.033.151-.066.155-.064.159-.063.164-.061.167-.06.172-.059.176-.057.179-.056.184-.054.187-.053.19-.051.195-.05.198-.048.201-.046.204-.045.208-.043.211-.041.214-.04.217-.038.22-.036.223-.034.226-.032.228-.031.231-.028.234-.027.236-.024.238-.023.241-.02.243-.019.245-.016.247-.015.249-.012.251-.01.253-.008.255-.005.256-.004.258-.001.258.001zm-9.258 20.499v.01l.001.021.003.021.004.022.005.021.006.022.007.022.009.023.01.022.011.023.012.023.013.023.015.023.016.024.017.023.018.024.019.024.021.024.022.025.023.024.024.025.052.049.056.05.061.051.066.051.07.051.075.051.079.052.084.052.088.052.092.052.097.052.102.051.105.052.11.052.114.051.119.051.123.051.127.05.131.05.135.05.139.048.144.049.147.047.152.047.155.047.16.045.163.045.167.043.171.043.176.041.178.041.183.039.187.039.19.037.194.035.197.035.202.033.204.031.209.03.212.029.216.027.219.025.222.024.226.021.23.02.233.018.236.016.24.015.243.012.246.01.249.008.253.005.256.004.259.001.26-.001.257-.004.254-.005.25-.008.247-.011.244-.012.241-.014.237-.016.233-.018.231-.021.226-.021.224-.024.22-.026.216-.027.212-.028.21-.031.205-.031.202-.034.198-.034.194-.036.191-.037.187-.039.183-.04.179-.04.175-.042.172-.043.168-.044.163-.045.16-.046.155-.046.152-.047.148-.048.143-.049.139-.049.136-.05.131-.05.126-.05.123-.051.118-.052.114-.051.11-.052.106-.052.101-.052.096-.052.092-.052.088-.053.083-.051.079-.052.074-.052.07-.051.065-.051.06-.051.056-.05.051-.05.023-.024.023-.025.021-.024.02-.024.019-.024.018-.024.017-.024.015-.023.014-.024.013-.023.012-.023.01-.023.01-.022.008-.022.006-.022.006-.022.004-.022.004-.021.001-.021.001-.021v-4.127l-.077.055-.08.053-.083.054-.085.053-.087.052-.09.052-.093.051-.095.05-.097.05-.1.049-.102.049-.105.048-.106.047-.109.047-.111.046-.114.045-.115.045-.118.044-.12.043-.122.042-.124.042-.126.041-.128.04-.13.04-.132.038-.134.038-.135.037-.138.037-.139.035-.142.035-.143.034-.144.033-.147.032-.148.031-.15.03-.151.03-.153.029-.154.027-.156.027-.158.026-.159.025-.161.024-.162.023-.163.022-.165.021-.166.02-.167.019-.169.018-.169.017-.171.016-.173.015-.173.014-.175.013-.175.012-.177.011-.178.01-.179.008-.179.008-.181.006-.182.005-.182.004-.184.003-.184.002h-.37l-.184-.002-.184-.003-.182-.004-.182-.005-.181-.006-.179-.008-.179-.008-.178-.01-.176-.011-.176-.012-.175-.013-.173-.014-.172-.015-.171-.016-.17-.017-.169-.018-.167-.019-.166-.02-.165-.021-.163-.022-.162-.023-.161-.024-.159-.025-.157-.026-.156-.027-.155-.027-.153-.029-.151-.03-.15-.03-.148-.031-.146-.032-.145-.033-.143-.034-.141-.035-.14-.035-.137-.037-.136-.037-.134-.038-.132-.038-.13-.04-.128-.04-.126-.041-.124-.042-.122-.042-.12-.044-.117-.043-.116-.045-.113-.045-.112-.046-.109-.047-.106-.047-.105-.048-.102-.049-.1-.049-.097-.05-.095-.05-.093-.052-.09-.051-.087-.052-.085-.053-.083-.054-.08-.054-.077-.054v4.127zm0-5.654v.011l.001.021.003.021.004.021.005.022.006.022.007.022.009.022.01.022.011.023.012.023.013.023.015.024.016.023.017.024.018.024.019.024.021.024.022.024.023.025.024.024.052.05.056.05.061.05.066.051.07.051.075.052.079.051.084.052.088.052.092.052.097.052.102.052.105.052.11.051.114.051.119.052.123.05.127.051.131.05.135.049.139.049.144.048.147.048.152.047.155.046.16.045.163.045.167.044.171.042.176.042.178.04.183.04.187.038.19.037.194.036.197.034.202.033.204.032.209.03.212.028.216.027.219.025.222.024.226.022.23.02.233.018.236.016.24.014.243.012.246.01.249.008.253.006.256.003.259.001.26-.001.257-.003.254-.006.25-.008.247-.01.244-.012.241-.015.237-.016.233-.018.231-.02.226-.022.224-.024.22-.025.216-.027.212-.029.21-.03.205-.032.202-.033.198-.035.194-.036.191-.037.187-.039.183-.039.179-.041.175-.042.172-.043.168-.044.163-.045.16-.045.155-.047.152-.047.148-.048.143-.048.139-.05.136-.049.131-.05.126-.051.123-.051.118-.051.114-.052.11-.052.106-.052.101-.052.096-.052.092-.052.088-.052.083-.052.079-.052.074-.051.07-.052.065-.051.06-.05.056-.051.051-.049.023-.025.023-.024.021-.025.02-.024.019-.024.018-.024.017-.024.015-.023.014-.023.013-.024.012-.022.01-.023.01-.023.008-.022.006-.022.006-.022.004-.021.004-.022.001-.021.001-.021v-4.139l-.077.054-.08.054-.083.054-.085.052-.087.053-.09.051-.093.051-.095.051-.097.05-.1.049-.102.049-.105.048-.106.047-.109.047-.111.046-.114.045-.115.044-.118.044-.12.044-.122.042-.124.042-.126.041-.128.04-.13.039-.132.039-.134.038-.135.037-.138.036-.139.036-.142.035-.143.033-.144.033-.147.033-.148.031-.15.03-.151.03-.153.028-.154.028-.156.027-.158.026-.159.025-.161.024-.162.023-.163.022-.165.021-.166.02-.167.019-.169.018-.169.017-.171.016-.173.015-.173.014-.175.013-.175.012-.177.011-.178.009-.179.009-.179.007-.181.007-.182.005-.182.004-.184.003-.184.002h-.37l-.184-.002-.184-.003-.182-.004-.182-.005-.181-.007-.179-.007-.179-.009-.178-.009-.176-.011-.176-.012-.175-.013-.173-.014-.172-.015-.171-.016-.17-.017-.169-.018-.167-.019-.166-.02-.165-.021-.163-.022-.162-.023-.161-.024-.159-.025-.157-.026-.156-.027-.155-.028-.153-.028-.151-.03-.15-.03-.148-.031-.146-.033-.145-.033-.143-.033-.141-.035-.14-.036-.137-.036-.136-.037-.134-.038-.132-.039-.13-.039-.128-.04-.126-.041-.124-.042-.122-.043-.12-.043-.117-.044-.116-.044-.113-.046-.112-.046-.109-.046-.106-.047-.105-.048-.102-.049-.1-.049-.097-.05-.095-.051-.093-.051-.09-.051-.087-.053-.085-.052-.083-.054-.08-.054-.077-.054v4.139zm0-5.666v.011l.001.02.003.022.004.021.005.022.006.021.007.022.009.023.01.022.011.023.012.023.013.023.015.023.016.024.017.024.018.023.019.024.021.025.022.024.023.024.024.025.052.05.056.05.061.05.066.051.07.051.075.052.079.051.084.052.088.052.092.052.097.052.102.052.105.051.11.052.114.051.119.051.123.051.127.05.131.05.135.05.139.049.144.048.147.048.152.047.155.046.16.045.163.045.167.043.171.043.176.042.178.04.183.04.187.038.19.037.194.036.197.034.202.033.204.032.209.03.212.028.216.027.219.025.222.024.226.021.23.02.233.018.236.017.24.014.243.012.246.01.249.008.253.006.256.003.259.001.26-.001.257-.003.254-.006.25-.008.247-.01.244-.013.241-.014.237-.016.233-.018.231-.02.226-.022.224-.024.22-.025.216-.027.212-.029.21-.03.205-.032.202-.033.198-.035.194-.036.191-.037.187-.039.183-.039.179-.041.175-.042.172-.043.168-.044.163-.045.16-.045.155-.047.152-.047.148-.048.143-.049.139-.049.136-.049.131-.051.126-.05.123-.051.118-.052.114-.051.11-.052.106-.052.101-.052.096-.052.092-.052.088-.052.083-.052.079-.052.074-.052.07-.051.065-.051.06-.051.056-.05.051-.049.023-.025.023-.025.021-.024.02-.024.019-.024.018-.024.017-.024.015-.023.014-.024.013-.023.012-.023.01-.022.01-.023.008-.022.006-.022.006-.022.004-.022.004-.021.001-.021.001-.021v-4.153l-.077.054-.08.054-.083.053-.085.053-.087.053-.09.051-.093.051-.095.051-.097.05-.1.049-.102.048-.105.048-.106.048-.109.046-.111.046-.114.046-.115.044-.118.044-.12.043-.122.043-.124.042-.126.041-.128.04-.13.039-.132.039-.134.038-.135.037-.138.036-.139.036-.142.034-.143.034-.144.033-.147.032-.148.032-.15.03-.151.03-.153.028-.154.028-.156.027-.158.026-.159.024-.161.024-.162.023-.163.023-.165.021-.166.02-.167.019-.169.018-.169.017-.171.016-.173.015-.173.014-.175.013-.175.012-.177.01-.178.01-.179.009-.179.007-.181.006-.182.006-.182.004-.184.003-.184.001-.185.001-.185-.001-.184-.001-.184-.003-.182-.004-.182-.006-.181-.006-.179-.007-.179-.009-.178-.01-.176-.01-.176-.012-.175-.013-.173-.014-.172-.015-.171-.016-.17-.017-.169-.018-.167-.019-.166-.02-.165-.021-.163-.023-.162-.023-.161-.024-.159-.024-.157-.026-.156-.027-.155-.028-.153-.028-.151-.03-.15-.03-.148-.032-.146-.032-.145-.033-.143-.034-.141-.034-.14-.036-.137-.036-.136-.037-.134-.038-.132-.039-.13-.039-.128-.041-.126-.041-.124-.041-.122-.043-.12-.043-.117-.044-.116-.044-.113-.046-.112-.046-.109-.046-.106-.048-.105-.048-.102-.048-.1-.05-.097-.049-.095-.051-.093-.051-.09-.052-.087-.052-.085-.053-.083-.053-.08-.054-.077-.054v4.153zm8.74-8.179l-.257.004-.254.005-.25.008-.247.011-.244.012-.241.014-.237.016-.233.018-.231.021-.226.022-.224.023-.22.026-.216.027-.212.028-.21.031-.205.032-.202.033-.198.034-.194.036-.191.038-.187.038-.183.04-.179.041-.175.042-.172.043-.168.043-.163.045-.16.046-.155.046-.152.048-.148.048-.143.048-.139.049-.136.05-.131.05-.126.051-.123.051-.118.051-.114.052-.11.052-.106.052-.101.052-.096.052-.092.052-.088.052-.083.052-.079.052-.074.051-.07.052-.065.051-.06.05-.056.05-.051.05-.023.025-.023.024-.021.024-.02.025-.019.024-.018.024-.017.023-.015.024-.014.023-.013.023-.012.023-.01.023-.01.022-.008.022-.006.023-.006.021-.004.022-.004.021-.001.021-.001.021.001.021.001.021.004.021.004.022.006.021.006.023.008.022.01.022.01.023.012.023.013.023.014.023.015.024.017.023.018.024.019.024.02.025.021.024.023.024.023.025.051.05.056.05.06.05.065.051.07.052.074.051.079.052.083.052.088.052.092.052.096.052.101.052.106.052.11.052.114.052.118.051.123.051.126.051.131.05.136.05.139.049.143.048.148.048.152.048.155.046.16.046.163.045.168.043.172.043.175.042.179.041.183.04.187.038.191.038.194.036.198.034.202.033.205.032.21.031.212.028.216.027.22.026.224.023.226.022.231.021.233.018.237.016.241.014.244.012.247.011.25.008.254.005.257.004.26.001.26-.001.257-.004.254-.005.25-.008.247-.011.244-.012.241-.014.237-.016.233-.018.231-.021.226-.022.224-.023.22-.026.216-.027.212-.028.21-.031.205-.032.202-.033.198-.034.194-.036.191-.038.187-.038.183-.04.179-.041.175-.042.172-.043.168-.043.163-.045.16-.046.155-.046.152-.048.148-.048.143-.048.139-.049.136-.05.131-.05.126-.051.123-.051.118-.051.114-.052.11-.052.106-.052.101-.052.096-.052.092-.052.088-.052.083-.052.079-.052.074-.051.07-.052.065-.051.06-.05.056-.05.051-.05.023-.025.023-.024.021-.024.02-.025.019-.024.018-.024.017-.023.015-.024.014-.023.013-.023.012-.023.01-.023.01-.022.008-.022.006-.023.006-.021.004-.022.004-.021.001-.021.001-.021-.001-.021-.001-.021-.004-.021-.004-.022-.006-.021-.006-.023-.008-.022-.01-.022-.01-.023-.012-.023-.013-.023-.014-.023-.015-.024-.017-.023-.018-.024-.019-.024-.02-.025-.021-.024-.023-.024-.023-.025-.051-.05-.056-.05-.06-.05-.065-.051-.07-.052-.074-.051-.079-.052-.083-.052-.088-.052-.092-.052-.096-.052-.101-.052-.106-.052-.11-.052-.114-.052-.118-.051-.123-.051-.126-.051-.131-.05-.136-.05-.139-.049-.143-.048-.148-.048-.152-.048-.155-.046-.16-.046-.163-.045-.168-.043-.172-.043-.175-.042-.179-.041-.183-.04-.187-.038-.191-.038-.194-.036-.198-.034-.202-.033-.205-.032-.21-.031-.212-.028-.216-.027-.22-.026-.224-.023-.226-.022-.231-.021-.233-.018-.237-.016-.241-.014-.244-.012-.247-.011-.25-.008-.254-.005-.257-.004-.26-.001-.26.001z"/></symbol></defs><defs><symbol id="diagram-9d693822e3dc095bac29-clock" width="24" height="24"><path transform="scale(.5)" d="M12 2c5.514 0 10 4.486 10 10s-4.486 10-10 10-10-4.486-10-10 4.486-10 10-10zm0-2c-6.627 0-12 5.373-12 12s5.373 12 12 12 12-5.373 12-12-5.373-12-12-12zm5.848 12.459c.202.038.202.333.001.372-1.907.361-6.045 1.111-6.547 1.111-.719 0-1.301-.582-1.301-1.301 0-.512.77-5.447 1.125-7.445.034-.192.312-.181.343.014l.985 6.238 5.394 1.011z"/></symbol></defs><defs><marker id="diagram-9d693822e3dc095bac29-arrowhead" refX="7.9" refY="5" markerUnits="userSpaceOnUse" markerWidth="12" markerHeight="12" orient="auto-start-reverse"><path d="M -1 0 L 10 5 L 0 10 z"/></marker></defs><defs><marker id="diagram-9d693822e3dc095bac29-crosshead" markerWidth="15" markerHeight="8" orient="auto" refX="4" refY="4.5"><path fill="none" stroke="#000000" stroke-width="1pt" d="M 1,2 L 6,7 M 6,2 L 1,7" style="stroke-dasharray: 0, 0;"/></marker></defs><defs><marker id="diagram-9d693822e3dc095bac29-filled-head" refX="15.5" refY="7" markerWidth="20" markerHeight="28" orient="auto"><path d="M 18,7 L9,13 L14,7 L9,1 Z"/></marker></defs><defs><marker id="diagram-9d693822e3dc095bac29-sequencenumber" refX="15" refY="15" markerWidth="60" markerHeight="40" orient="auto"><circle cx="15" cy="15" r="6"/></marker></defs><defs><marker id="diagram-9d693822e3dc095bac29-solidTopArrowHead" refX="7.9" refY="7.25" markerUnits="userSpaceOnUse" markerWidth="12" markerHeight="12" orient="auto-start-reverse"><path d="M 0 0 L 10 8 L 0 8 z"/></marker></defs><defs><marker id="diagram-9d693822e3dc095bac29-solidBottomArrowHead" refX="7.9" refY="0.75" markerUnits="userSpaceOnUse" markerWidth="12" markerHeight="12" orient="auto-start-reverse"><path d="M 0 0 L 10 0 L 0 8 z"/></marker></defs><defs><marker id="diagram-9d693822e3dc095bac29-stickTopArrowHead" refX="7.5" refY="7" markerUnits="userSpaceOnUse" markerWidth="12" markerHeight="12" orient="auto-start-reverse"><path d="M 0 0 L 7 7" stroke="black" stroke-width="1.5" fill="none"/></marker></defs><defs><marker id="diagram-9d693822e3dc095bac29-stickBottomArrowHead" refX="7.5" refY="0" markerUnits="userSpaceOnUse" markerWidth="12" markerHeight="12" orient="auto-start-reverse"><path d="M 0 7 L 7 0" stroke="black" stroke-width="1.5" fill="none"/></marker></defs><g data-et="note" data-id="i0"><rect x="49" y="54" fill="#EDF2AE" stroke="#666" width="258" height="84" class="note"/><text x="178" y="58" text-anchor="middle" dominant-baseline="middle" alignment-baseline="middle" class="noteText" dy="1em" style="font-family: Arial, sans-serif; font-size: 16px; font-weight: 400;"><tspan x="178">Authenticated management caller</tspan></text><text x="178" y="75" text-anchor="middle" dominant-baseline="middle" alignment-baseline="middle" class="noteText" dy="1em" style="font-family: Arial, sans-serif; font-size: 16px; font-weight: 400;"><tspan x="178">and admitted purpose</tspan></text><text x="178" y="92" text-anchor="middle" dominant-baseline="middle" alignment-baseline="middle" class="noteText" dy="1em" style="font-family: Arial, sans-serif; font-size: 16px; font-weight: 400;"><tspan x="178">Agent flags and bootstrap</tspan></text><text x="178" y="109" text-anchor="middle" dominant-baseline="middle" alignment-baseline="middle" class="noteText" dy="1em" style="font-family: Arial, sans-serif; font-size: 16px; font-weight: 400;"><tspan x="178">delegation cannot select this path</tspan></text></g><g data-et="note" data-id="i2"><rect x="49" y="192" fill="#EDF2AE" stroke="#666" width="258" height="84" class="note"/><text x="178" y="196" text-anchor="middle" dominant-baseline="middle" alignment-baseline="middle" class="noteText" dy="1em" style="font-family: Arial, sans-serif; font-size: 16px; font-weight: 400;"><tspan x="178">Bind caller / user, tenant,</tspan></text><text x="178" y="213" text-anchor="middle" dominant-baseline="middle" alignment-baseline="middle" class="noteText" dy="1em" style="font-family: Arial, sans-serif; font-size: 16px; font-weight: 400;"><tspan x="178">source,</tspan></text><text x="178" y="230" text-anchor="middle" dominant-baseline="middle" alignment-baseline="middle" class="noteText" dy="1em" style="font-family: Arial, sans-serif; font-size: 16px; font-weight: 400;"><tspan x="178">purpose, grant, destination and</tspan></text><text x="178" y="247" text-anchor="middle" dominant-baseline="middle" alignment-baseline="middle" class="noteText" dy="1em" style="font-family: Arial, sans-serif; font-size: 16px; font-weight: 400;"><tspan x="178">operation</tspan></text></g><g data-et="note" data-id="i5"><rect x="49" y="389" fill="#EDF2AE" stroke="#666" width="258" height="33" class="note"/><text x="178" y="393" text-anchor="middle" dominant-baseline="middle" alignment-baseline="middle" class="noteText" dy="1em" style="font-family: Arial, sans-serif; font-size: 16px; font-weight: 400;"><tspan x="178">Refuse before material access</tspan></text></g><g data-et="control-structure" data-id="i6"><line x1="39" y1="330" x2="317" y2="330" class="loopLine"/><line x1="317" y1="330" x2="317" y2="432" class="loopLine"/><line x1="39" y1="432" x2="317" y2="432" class="loopLine"/><line x1="39" y1="330" x2="39" y2="432" class="loopLine"/><polygon points="39,330 89,330 89,343 80.6,350 39,350" class="labelBox"/><text x="64" y="343" text-anchor="middle" dominant-baseline="middle" alignment-baseline="middle" class="labelText" style="font-family: Arial, sans-serif; font-size: 16px; font-weight: 400;">break</text><text x="203" y="348" text-anchor="middle" class="loopText" style="font-family: Arial, sans-serif; font-size: 16px; font-weight: 400;"><tspan x="203">[Denied or authority</tspan></text><text x="203" y="365" text-anchor="middle" class="loopText" style="font-family: Arial, sans-serif; font-size: 16px; font-weight: 400;"><tspan x="203">unavailable]</tspan></text></g><g data-et="note" data-id="i8"><rect x="489.5" y="503" fill="#EDF2AE" stroke="#666" width="228" height="101" class="note"/><text x="604" y="507" text-anchor="middle" dominant-baseline="middle" alignment-baseline="middle" class="noteText" dy="1em" style="font-family: Arial, sans-serif; font-size: 16px; font-weight: 400;"><tspan x="604">Reuse or prepare through the</tspan></text><text x="604" y="524" text-anchor="middle" dominant-baseline="middle" alignment-baseline="middle" class="noteText" dy="1em" style="font-family: Arial, sans-serif; font-size: 16px; font-weight: 400;"><tspan x="604">same lifecycle owner</tspan></text><text x="604" y="541" text-anchor="middle" dominant-baseline="middle" alignment-baseline="middle" class="noteText" dy="1em" style="font-family: Arial, sans-serif; font-size: 16px; font-weight: 400;"><tspan x="604">Owner</tspan></text><text x="604" y="558" text-anchor="middle" dominant-baseline="middle" alignment-baseline="middle" class="noteText" dy="1em" style="font-family: Arial, sans-serif; font-size: 16px; font-weight: 400;"><tspan x="604">authorizes its issuer</tspan></text><text x="604" y="575" text-anchor="middle" dominant-baseline="middle" alignment-baseline="middle" class="noteText" dy="1em" style="font-family: Arial, sans-serif; font-size: 16px; font-weight: 400;"><tspan x="604">operations</tspan></text></g><g data-et="note" data-id="i10"><rect x="49" y="705" fill="#EDF2AE" stroke="#666" width="458.5" height="50" class="note"/><text x="278" y="709" text-anchor="middle" dominant-baseline="middle" alignment-baseline="middle" class="noteText" dy="1em" style="font-family: Arial, sans-serif; font-size: 16px; font-weight: 400;"><tspan x="278">Roots stay confined; no second refresher</tspan></text><text x="278" y="726" text-anchor="middle" dominant-baseline="middle" alignment-baseline="middle" class="noteText" dy="1em" style="font-family: Arial, sans-serif; font-size: 16px; font-weight: 400;"><tspan x="278">A failed retrieval may follow a completed refresh</tspan></text></g><g data-et="note" data-id="i13"><rect x="49" y="854" fill="#EDF2AE" stroke="#666" width="458.5" height="33" class="note"/><text x="278" y="858" text-anchor="middle" dominant-baseline="middle" alignment-baseline="middle" class="noteText" dy="1em" style="font-family: Arial, sans-serif; font-size: 16px; font-weight: 400;"><tspan x="278">Refuse use; retain uncertain attempt</tspan></text></g><g data-et="note" data-id="i14"><rect x="49" y="897" fill="#EDF2AE" stroke="#666" width="458.5" height="33" class="note"/><text x="278" y="901" text-anchor="middle" dominant-baseline="middle" alignment-baseline="middle" class="noteText" dy="1em" style="font-family: Arial, sans-serif; font-size: 16px; font-weight: 400;"><tspan x="278">Reconcile refresh effects; no blind replay</tspan></text></g><g data-et="control-structure" data-id="i15"><line x1="39" y1="809" x2="517.5" y2="809" class="loopLine"/><line x1="517.5" y1="809" x2="517.5" y2="940" class="loopLine"/><line x1="39" y1="940" x2="517.5" y2="940" class="loopLine"/><line x1="39" y1="809" x2="39" y2="940" class="loopLine"/><polygon points="39,809 89,809 89,822 80.6,829 39,829" class="labelBox"/><text x="64" y="822" text-anchor="middle" dominant-baseline="middle" alignment-baseline="middle" class="labelText" style="font-family: Arial, sans-serif; font-size: 16px; font-weight: 400;">break</text><text x="303.25" y="827" text-anchor="middle" class="loopText" style="font-family: Arial, sans-serif; font-size: 16px; font-weight: 400;"><tspan x="303.25">[Failed, withdrawn, unusable or too late]</tspan></text></g><g data-et="note" data-id="i18"><rect x="49" y="1102" fill="#EDF2AE" stroke="#666" width="258" height="84" class="note"/><text x="178" y="1106" text-anchor="middle" dominant-baseline="middle" alignment-baseline="middle" class="noteText" dy="1em" style="font-family: Arial, sans-serif; font-size: 16px; font-weight: 400;"><tspan x="178">Check actual operation, versioned</tspan></text><text x="178" y="1123" text-anchor="middle" dominant-baseline="middle" alignment-baseline="middle" class="noteText" dy="1em" style="font-family: Arial, sans-serif; font-size: 16px; font-weight: 400;"><tspan x="178">route and grant,</tspan></text><text x="178" y="1140" text-anchor="middle" dominant-baseline="middle" alignment-baseline="middle" class="noteText" dy="1em" style="font-family: Arial, sans-serif; font-size: 16px; font-weight: 400;"><tspan x="178">material identity / version;</tspan></text><text x="178" y="1157" text-anchor="middle" dominant-baseline="middle" alignment-baseline="middle" class="noteText" dy="1em" style="font-family: Arial, sans-serif; font-size: 16px; font-weight: 400;"><tspan x="178">no credential bytes</tspan></text></g><g data-et="control-structure" data-id="i26"><line x1="-61.5" y1="1240" x2="719.5" y2="1240" class="loopLine"/><line x1="719.5" y1="1240" x2="719.5" y2="1630" class="loopLine"/><line x1="-61.5" y1="1630" x2="719.5" y2="1630" class="loopLine"/><line x1="-61.5" y1="1240" x2="-61.5" y2="1630" class="loopLine"/><line x1="-61.5" y1="1469" x2="719.5" y2="1469" class="loopLine" style="stroke-dasharray: 3, 3;"/><polygon points="-61.5,1240 -11.5,1240 -11.5,1253 -19.9,1260 -61.5,1260" class="labelBox"/><text x="-36" y="1253" text-anchor="middle" dominant-baseline="middle" alignment-baseline="middle" class="labelText" style="font-family: Arial, sans-serif; font-size: 16px; font-weight: 400;">alt</text><text x="354" y="1258" text-anchor="middle" class="loopText" style="font-family: Arial, sans-serif; font-size: 16px; font-weight: 400;"><tspan x="354">[Allowed, material usable, within original deadline]</tspan></text><text x="329" y="1487" text-anchor="middle" class="sectionTitle" style="font-family: Arial, sans-serif; font-size: 16px; font-weight: 400;">[Denied, unavailable, unusable or too late]</text></g><g data-et="note" data-id="i27"><rect x="49" y="1640" fill="#EDF2AE" stroke="#666" width="668.5" height="67" class="note"/><text x="383" y="1644" text-anchor="middle" dominant-baseline="middle" alignment-baseline="middle" class="noteText" dy="1em" style="font-family: Arial, sans-serif; font-size: 16px; font-weight: 400;"><tspan x="383">No provider tokens or handles to Agent or UI</tspan></text><text x="383" y="1661" text-anchor="middle" dominant-baseline="middle" alignment-baseline="middle" class="noteText" dy="1em" style="font-family: Arial, sans-serif; font-size: 16px; font-weight: 400;"><tspan x="383">Each provider operation repeats both checks</tspan></text><text x="383" y="1678" text-anchor="middle" dominant-baseline="middle" alignment-baseline="middle" class="noteText" dy="1em" style="font-family: Arial, sans-serif; font-size: 16px; font-weight: 400;"><tspan x="383">No automatic sender retry</tspan></text></g><text x="177" y="153" text-anchor="middle" dominant-baseline="middle" alignment-baseline="middle" class="messageText" dy="1em" style="font-family: Arial, sans-serif; font-size: 16px; font-weight: 400;">1. Current authority before access</text><line x1="59" y1="182" x2="294" y2="182" class="messageLine0" data-et="message" data-id="i1" data-from="M" data-to="C" stroke-width="2" stroke="none" marker-end="url(#diagram-9d693822e3dc095bac29-arrowhead)" style="fill: none;"/><text x="180" y="291" text-anchor="middle" dominant-baseline="middle" alignment-baseline="middle" class="messageText" dy="1em" style="font-family: Arial, sans-serif; font-size: 16px; font-weight: 400;">Allow, deny or unavailable</text><line x1="297" y1="320" x2="62" y2="320" class="messageLine1" data-et="message" data-id="i3" data-from="C" data-to="M" stroke-width="2" stroke="none" marker-end="url(#diagram-9d693822e3dc095bac29-arrowhead)" style="stroke-dasharray: 3, 3; fill: none;"/><text x="277" y="447" text-anchor="middle" dominant-baseline="middle" alignment-baseline="middle" class="messageText" dy="1em" style="font-family: Arial, sans-serif; font-size: 16px; font-weight: 400;">Request usable material</text><text x="277" y="464" text-anchor="middle" dominant-baseline="middle" alignment-baseline="middle" class="messageText" dy="1em" style="font-family: Arial, sans-serif; font-size: 16px; font-weight: 400;">within original deadline</text><line x1="59" y1="493" x2="494.5" y2="493" class="messageLine0" data-et="message" data-id="i7" data-from="M" data-to="L" stroke-width="2" stroke="none" marker-end="url(#diagram-9d693822e3dc095bac29-arrowhead)" style="fill: none;"/><text x="500" y="619" text-anchor="middle" dominant-baseline="middle" alignment-baseline="middle" class="messageText" dy="1em" style="font-family: Arial, sans-serif; font-size: 16px; font-weight: 400;">Reuse if eligible</text><text x="500" y="636" text-anchor="middle" dominant-baseline="middle" alignment-baseline="middle" class="messageText" dy="1em" style="font-family: Arial, sans-serif; font-size: 16px; font-weight: 400;">Otherwise coordinated preparation</text><path d="M 499.5,665 C 559.5,655 559.5,695 499.5,685" class="messageLine0" data-et="message" data-id="i9" data-from="L" data-to="L" stroke-width="2" stroke="none" marker-end="url(#diagram-9d693822e3dc095bac29-arrowhead)" style="fill: none;"/><text x="280" y="770" text-anchor="middle" dominant-baseline="middle" alignment-baseline="middle" class="messageText" dy="1em" style="font-family: Arial, sans-serif; font-size: 16px; font-weight: 400;">Usable runtime material + evidence, or failure</text><line x1="497.5" y1="799" x2="62" y2="799" class="messageLine1" data-et="message" data-id="i11" data-from="L" data-to="M" stroke-width="2" stroke="none" marker-end="url(#diagram-9d693822e3dc095bac29-arrowhead)" style="stroke-dasharray: 3, 3; fill: none;"/><text x="59" y="955" text-anchor="middle" dominant-baseline="middle" alignment-baseline="middle" class="messageText" dy="1em" style="font-family: Arial, sans-serif; font-size: 16px; font-weight: 400;">Freeze actual</text><text x="59" y="972" text-anchor="middle" dominant-baseline="middle" alignment-baseline="middle" class="messageText" dy="1em" style="font-family: Arial, sans-serif; font-size: 16px; font-weight: 400;">operation and</text><text x="59" y="989" text-anchor="middle" dominant-baseline="middle" alignment-baseline="middle" class="messageText" dy="1em" style="font-family: Arial, sans-serif; font-size: 16px; font-weight: 400;">material</text><path d="M 59,1018 C 119,1008 119,1048 59,1038" class="messageLine0" data-et="message" data-id="i16" data-from="M" data-to="M" stroke-width="2" stroke="none" marker-end="url(#diagram-9d693822e3dc095bac29-arrowhead)" style="fill: none;"/><text x="177" y="1063" text-anchor="middle" dominant-baseline="middle" alignment-baseline="middle" class="messageText" dy="1em" style="font-family: Arial, sans-serif; font-size: 16px; font-weight: 400;">2. Fresh authority after preparation</text><line x1="59" y1="1092" x2="294" y2="1092" class="messageLine0" data-et="message" data-id="i17" data-from="M" data-to="C" stroke-width="2" stroke="none" marker-end="url(#diagram-9d693822e3dc095bac29-arrowhead)" style="fill: none;"/><text x="180" y="1201" text-anchor="middle" dominant-baseline="middle" alignment-baseline="middle" class="messageText" dy="1em" style="font-family: Arial, sans-serif; font-size: 16px; font-weight: 400;">Allow, deny or unavailable</text><line x1="297" y1="1230" x2="62" y2="1230" class="messageLine1" data-et="message" data-id="i19" data-from="C" data-to="M" stroke-width="2" stroke="none" marker-end="url(#diagram-9d693822e3dc095bac29-arrowhead)" style="stroke-dasharray: 3, 3; fill: none;"/><text x="382" y="1290" text-anchor="middle" dominant-baseline="middle" alignment-baseline="middle" class="messageText" dy="1em" style="font-family: Arial, sans-serif; font-size: 16px; font-weight: 400;">Inject material; send once</text><line x1="59" y1="1319" x2="704.5" y2="1319" class="messageLine0" data-et="message" data-id="i21" data-from="M" data-to="P" stroke-width="2" stroke="none" marker-end="url(#diagram-9d693822e3dc095bac29-arrowhead)" style="fill: none;"/><text x="385" y="1334" text-anchor="middle" dominant-baseline="middle" alignment-baseline="middle" class="messageText" dy="1em" style="font-family: Arial, sans-serif; font-size: 16px; font-weight: 400;">Response or failure</text><line x1="707.5" y1="1363" x2="62" y2="1363" class="messageLine1" data-et="message" data-id="i22" data-from="P" data-to="M" stroke-width="2" stroke="none" marker-end="url(#diagram-9d693822e3dc095bac29-arrowhead)" style="stroke-dasharray: 3, 3; fill: none;"/><text x="59" y="1378" text-anchor="middle" dominant-baseline="middle" alignment-baseline="middle" class="messageText" dy="1em" style="font-family: Arial, sans-serif; font-size: 16px; font-weight: 400;">Apply response policy</text><text x="59" y="1395" text-anchor="middle" dominant-baseline="middle" alignment-baseline="middle" class="messageText" dy="1em" style="font-family: Arial, sans-serif; font-size: 16px; font-weight: 400;">Return sanitized metadata only</text><path d="M 59,1424 C 119,1414 119,1454 59,1444" class="messageLine0" data-et="message" data-id="i23" data-from="M" data-to="M" stroke-width="2" stroke="none" marker-end="url(#diagram-9d693822e3dc095bac29-arrowhead)" style="fill: none;"/><text x="59" y="1514" text-anchor="middle" dominant-baseline="middle" alignment-baseline="middle" class="messageText" dy="1em" style="font-family: Arial, sans-serif; font-size: 16px; font-weight: 400;">Refuse before</text><text x="59" y="1531" text-anchor="middle" dominant-baseline="middle" alignment-baseline="middle" class="messageText" dy="1em" style="font-family: Arial, sans-serif; font-size: 16px; font-weight: 400;">provider send</text><path d="M 59,1560 C 119,1550 119,1590 59,1580" class="messageLine0" data-et="message" data-id="i25" data-from="M" data-to="M" stroke-width="2" stroke="none" marker-end="url(#diagram-9d693822e3dc095bac29-arrowhead)" style="fill: none;"/><text x="390" y="-25">Proposed authorized management preparation</text><text x="-61.5" y="1807" font-family="Arial, sans-serif" font-size="14" fill="#344054" class="publication-caption"><tspan x="-61.5" dy="0">Proposed separately authorized management preparation. Solid arrows are calls; dashed arrows are</tspan><tspan x="-61.5" dy="20">returns.</tspan></text></svg>